<?xml version="1.0" encoding="UTF-8" standalone="no"?>
<svg
   xmlns:dc="http://purl.org/dc/elements/1.1/"
   xmlns:cc="http://creativecommons.org/ns#"
   xmlns:rdf="http://www.w3.org/1999/02/22-rdf-syntax-ns#"
   xmlns:svg="http://www.w3.org/2000/svg"
   xmlns="http://www.w3.org/2000/svg"
   xmlns:xlink="http://www.w3.org/1999/xlink"
   xmlns:sodipodi="http://sodipodi.sourceforge.net/DTD/sodipodi-0.dtd"
   xmlns:inkscape="http://www.inkscape.org/namespaces/inkscape"
   width="700"
   height="700"
   viewBox="0 0 185.20834 185.20834"
   version="1.1"
   id="svg914"
   inkscape:version="1.0.1 (3bc2e813f5, 2020-09-07)"
   sodipodi:docname="logo.svg"
   inkscape:export-filename="C:\shareddocs\websites\wsbsignal.com\img\icons\icon.png"
   inkscape:export-xdpi="82.285713"
   inkscape:export-ydpi="82.285713">
  <defs
     id="defs908">
    <linearGradient
       inkscape:collect="always"
       id="linearGradient1963">
      <stop
         style="stop-color:#b0b0b0;stop-opacity:1"
         offset="0"
         id="stop1959" />
      <stop
         style="stop-color:#ffffff;stop-opacity:0.99607843"
         offset="1"
         id="stop1961" />
    </linearGradient>
    <linearGradient
       inkscape:collect="always"
       id="linearGradient1953">
      <stop
         style="stop-color:#b0b0b0;stop-opacity:1"
         offset="0"
         id="stop1949" />
      <stop
         style="stop-color:#ffffff;stop-opacity:1"
         offset="1"
         id="stop1951" />
    </linearGradient>
    <linearGradient
       inkscape:collect="always"
       id="linearGradient1916">
      <stop
         style="stop-color:#00ffff;stop-opacity:1;"
         offset="0"
         id="stop1912" />
      <stop
         style="stop-color:#002bff;stop-opacity:0.96402878"
         offset="1"
         id="stop1914" />
    </linearGradient>
    <radialGradient
       inkscape:collect="always"
       xlink:href="#linearGradient1916"
       id="radialGradient1920"
       cx="-954.58118"
       cy="-18.41061"
       fx="-954.58118"
       fy="-18.41061"
       r="16.351547"
       gradientUnits="userSpaceOnUse"
       gradientTransform="matrix(0.47794391,0,0,0.47794391,-701.33872,47.275414)" />
    <radialGradient
       inkscape:collect="always"
       xlink:href="#linearGradient1916"
       id="radialGradient1920-1"
       cx="-954.58118"
       cy="-18.41061"
       fx="-954.58118"
       fy="-18.41061"
       r="16.351547"
       gradientUnits="userSpaceOnUse"
       gradientTransform="matrix(0.3565869,0,0,0.3565869,-770.54948,41.536842)" />
    <linearGradient
       inkscape:collect="always"
       xlink:href="#linearGradient1963"
       id="linearGradient1955"
       x1="-1025.7394"
       y1="-7.6549025"
       x2="-886.44702"
       y2="-7.6549025"
       gradientUnits="userSpaceOnUse"
       gradientTransform="matrix(0.3565869,0,0,0.3565869,-817.18384,45.041158)" />
    <linearGradient
       inkscape:collect="always"
       xlink:href="#linearGradient1953"
       id="linearGradient1957"
       x1="-864.71246"
       y1="-21.02206"
       x2="-759.30939"
       y2="-21.02206"
       gradientUnits="userSpaceOnUse"
       gradientTransform="matrix(0.3565869,0,0,0.3565869,-817.18384,45.041158)" />
  </defs>
  <sodipodi:namedview
     id="base"
     pagecolor="#ffffff"
     bordercolor="#666666"
     borderopacity="1.0"
     inkscape:pageopacity="0.0"
     inkscape:pageshadow="2"
     inkscape:zoom="2.8"
     inkscape:cx="414.99436"
     inkscape:cy="353.93229"
     inkscape:document-units="mm"
     inkscape:current-layer="g1851"
     inkscape:document-rotation="0"
     showgrid="false"
     units="px"
     inkscape:showpageshadow="false"
     inkscape:window-width="3840"
     inkscape:window-height="2066"
     inkscape:window-x="2869"
     inkscape:window-y="607"
     inkscape:window-maximized="1"
     fit-margin-top="0"
     fit-margin-left="0"
     fit-margin-right="0"
     fit-margin-bottom="0" />
  <metadata
     id="metadata911">
    <rdf:RDF>
      <cc:Work
         rdf:about="">
        <dc:format>image/svg+xml</dc:format>
        <dc:type
           rdf:resource="http://purl.org/dc/dcmitype/StillImage" />
        <dc:title></dc:title>
      </cc:Work>
    </rdf:RDF>
  </metadata>
  <g
     inkscape:label="Layer 1"
     inkscape:groupmode="layer"
     id="layer1"
     transform="translate(-50.70428,-46.683853)">
    <g
       id="g1815"
       transform="translate(738.37878,13.874901)">
      <g
         id="g1851"
         transform="translate(573.0119,102.05357)">
        <path
           style="fill:#fcba83;stroke-width:0.457423"
           d="m -1164.6084,102.99174 c -14.4512,-1.98457 -28.1807,-8.319911 -36.9145,-17.033922 -3.3236,-3.316144 -3.3236,-3.316144 -7.6699,-2.767196 -12.6078,1.592396 -22.2398,-4.351454 -26.2984,-16.228458 -4.1133,-12.037389 2.4304,-28.233389 11.4073,-28.233389 1.8556,0 1.8556,0 0.676,-2.327805 -1.2812,-2.528545 -1.0859,-2.481353 -7.0694,-1.708075 -1.0857,0.140314 -1.1384,0.04272 -1.0422,-1.929596 0.1013,-2.07738 0.1013,-2.07738 -3.9078,-2.887781 -5.4656,-1.10479 -5.671,-1.269805 -3.9013,-3.134131 4.5695,-4.813714 5.9362,-11.913012 2.3852,-12.389299 -3.2846,-0.440561 -3.4411,-1.699942 -0.5684,-4.5726835 1.5735,-1.573546 1.7337,-2.6127829 0.4026,-2.6127829 -4.284,0 -17.5592,-10.8031394 -16.9227,-13.7713404 0.45,-2.0983497 0.2069,-2.0597377 4.3491,-0.6907477 5.8234,1.9246527 10.8902,2.1428377 6.3802,0.274747 -1.6306,-0.675419 -3.7796,-4.0423325 -3.5615,-5.5799355 0.1854,-1.307227 1.3253,-1.281617 5.2692,0.118426 4.7978,1.703177 10.6602,-0.305046 10.6602,-3.651743 0,-1.73632 -0.9743,-2.03107 -3.8464,-1.16359 -5.3002,1.60086 -5.1448,0.64453 0.5301,-3.26218 8.6837,-5.97803 8.7957,-6.18603 3.6932,-6.86289 -3.8373,-0.50903 -0.8885,-3.27059 6.1532,-5.76244 4.6335,-1.63965 7.8555,-3.46151 9.9371,-5.61883 7.1697,-7.43043 30.507,-16.93134 48.4389,-19.72004 35.0806,-5.45563 67.0813,13.49867 60.124,35.61202 -0.6826,2.16975 -0.6826,2.16975 0.8903,3.65938 3.7281,3.53062 4.5373,7.834247 3.5913,19.10040253 -1.1196,13.33336347 0.6196,17.83947847 6.8854,17.83947847 8.563,0 9.8201,1.00595 10.317,8.256051 0.2295,3.348484 0.1903,3.523992 -1.1268,5.03974 -1.191,1.370511 -1.4032,2.044953 -1.6675,5.297698 -0.666,8.199084 -3.1537,14.384351 -7.425,18.46085 -2.2389,2.136881 -2.47,2.541078 -2.47,4.321751 0,3.08365 -1.7889,12.936627 -3.0351,16.71657 -6.0323,18.296964 -36.43,31.088991 -64.6634,27.211741 z"
           id="path1863" />
        <path
           style="fill:#e0a574;stroke-width:0.457423"
           d="m -1160.4916,103.38384 c -16.6622,-1.58733 -30.8641,-7.646587 -40.7552,-17.38822 -3.4752,-3.422682 -3.4752,-3.422682 -8.0363,-2.892415 -15.6575,1.820272 -27.3133,-8.552323 -27.2478,-24.24784 0.047,-11.127877 7.3214,-22.195366 13.1256,-19.968116 1.2135,0.465674 1.2156,-0.539749 0.01,-2.926553 -1.2549,-2.476462 -1.8927,-2.638747 -6.8494,-1.742798 -0.8104,0.146481 -0.9011,-0.05412 -0.7946,-1.756859 0.1186,-1.896035 0.097,-1.926028 -1.601,-2.201469 -5.8982,-0.956947 -7.7733,-2.108522 -6.018,-3.695952 3.3363,-3.017328 5.7111,-12.078237 3.1655,-12.078237 -3.7783,0 -4.3548,-1.523134 -1.6031,-4.23592 2.3347,-2.3017185 2.2865,-2.4321645 -1.3824,-3.7415874 -5.4459,-1.9436591 -15.3236,-9.6056421 -15.3236,-11.8862544 0,-1.9802267 0.831,-2.5972427 2.5377,-1.8841587 7.096,2.9648987 14.3166,2.7894687 8.4466,-0.205219 -1.7995,-0.918051 -3.6656,-3.6146855 -3.6656,-5.2971945 0,-0.872159 1.3296,-0.741259 4.3455,0.427833 5.4631,2.117692 12.8902,-0.700807 11.9298,-4.527192 -0.385,-1.53417 -1.2039,-1.79174 -3.9622,-1.24634 -2.734,0.54056 -2.7158,0.163 0.088,-1.82002 8.3847,-5.93088 9.4641,-8.12424 3.9982,-8.12424 -2.7668,0 2.0511,-3.48519 7.6767,-5.55322 6.1429,-2.25814 7.4383,-2.95165 7.9302,-4.24532 2.0439,-5.37587 25.2502,-15.99836 42.4797,-19.44474 38.0666,-7.61437 73.5254,10.6039 66.1676,33.99609 -0.7966,2.53261 -0.7966,2.53261 1.3216,4.8885 3.3656,3.74336 3.7044,5.53616 3.0541,16.1581205 -0.5028,8.2111271 -0.477,9.0720381 0.4252,14.1888155 1.2129,6.879644 0.6625,6.348275 6.1854,5.97183 7.6751,-0.523132 9.4655,0.556582 10.3492,6.241082 0.6111,3.930819 0.3915,5.283527 -1.1568,7.123564 -0.8281,0.984081 -1.1693,2.08318 -1.3957,4.495123 -0.8394,8.941865 -2.9442,14.471815 -7.0297,18.469541 -2.6854,2.627646 -2.6854,2.627646 -3.243,7.626716 -1.4683,13.165489 -3.7626,18.983686 -9.7355,24.688274 -12.7041,12.129242 -33.6279,18.721496 -53.4368,16.834376 z m -8.2509,-8.641625 c -0.3227,-0.388822 -0.8625,-0.60112 -1.1995,-0.471775 -0.3371,0.129341 -0.6129,-0.0054 -0.6129,-0.29938 0,-0.389852 -0.1537,-0.380806 -0.5679,0.03338 -0.7068,0.706734 0.2361,1.427079 1.8818,1.437702 0.9273,0.006 0.9998,-0.09592 0.4985,-0.699948 z m 38.6695,-2.037584 c 0.7231,-0.754744 1.6708,-1.372267 2.1061,-1.372267 0.4352,0 1.7347,-0.404366 2.8876,-0.898589 1.1946,-0.51203 2.0964,-0.692409 2.0964,-0.419303 0,0.263607 0.2212,0.405529 0.4917,0.315373 0.2704,-0.09015 0.4633,-0.339154 0.4286,-0.553348 -0.064,-0.393462 1.1449,-1.199498 3.1419,-2.095266 1.9751,-0.885961 3.7709,-2.385709 4.1963,-3.5044 0.2303,-0.605834 0.773,-1.237432 1.2059,-1.403555 1.4091,-0.540743 2.4401,-1.682848 4.145,-4.591809 0.9216,-1.57239 1.8082,-2.858891 1.9703,-2.858891 0.6384,0 3.1532,-6.369146 3.8303,-9.700943 1.2528,-6.16413 1.2988,-6.054303 -2.8049,-6.692293 -3.7787,-0.587463 -7.5915,-2.115003 -10.1499,-4.066358 -1.4888,-1.135597 -1.6189,-1.159927 -2.0777,-0.388686 -2.5756,4.329505 -3.4009,5.164611 -8.2056,8.302964 -3.988,2.604912 -4.732,-0.02182 -1.0883,-3.842394 3.8031,-3.987705 3.9701,-4.485422 2.0846,-6.212708 -0.8584,-0.786415 -2.4465,-3.034418 -3.529,-4.995557 -1.0826,-1.96114 -2.0364,-3.497695 -2.1195,-3.414573 -0.083,0.08313 -1.0813,1.999966 -2.2181,4.259638 -5.3681,10.670432 -14.2015,15.934043 -26.8103,15.975573 -13.8018,0.04547 -19.717,-4.729406 -25.1844,-20.329394 -1.591,-4.539767 -1.7895,-4.862685 -3.622,-5.893404 -2.1267,-1.196128 -2.9081,-2.606641 -3.4235,-6.179746 -0.3021,-2.09387 -12.0989,-3.129095 -16.3249,-1.432575 -1.2989,0.521467 -1.3118,2.515568 -0.1252,19.337862 0.4099,5.811631 -0.01,5.974423 -2.5881,1.012061 -2.3027,-4.42607 -5.5492,-8.216465 -7.0375,-8.216465 -0.5737,0 -1.9873,-0.417668 -3.1413,-0.928152 -7.944,-3.513993 -14.1068,12.904127 -8.8279,23.518013 4.428,8.902984 15.5182,15.843324 21.6135,13.525902 2.4249,-0.921935 6.9394,-5.121042 7.1087,-6.612011 0.1438,-1.266754 0.2968,-1.373718 1.989,-1.391104 2.4085,-0.02475 2.9698,-0.429717 2.9698,-2.142796 0,-2.713559 0.4395,-0.963858 0.637,2.535886 0.1163,2.060387 0.025,3.411869 -0.2192,3.260664 -0.2298,-0.14203 -0.4178,-0.65083 -0.4178,-1.130662 0,-0.844535 -0.051,-0.842229 -1.601,0.07218 -1.6602,0.979556 -2.3074,2.179334 -0.7162,1.327751 1.7207,-0.920901 3.5582,-0.05553 3.9249,1.848436 0.3238,1.68154 2.0106,4.996808 2.5423,4.996808 0.2847,0 0.366,0.426114 0.1963,1.029203 -0.2228,0.792268 -0.1817,0.872126 0.1789,0.346891 0.3953,-0.57597 0.5604,-0.584881 1.0592,-0.05718 0.4681,0.495328 0.472,0.668665 0.019,0.834784 -0.3145,0.11531 -0.5718,0.513403 -0.5718,0.884664 0,0.371257 0.1866,0.559659 0.4148,0.418672 0.2281,-0.140987 0.3077,0.153122 0.1768,0.653581 -0.1608,0.614945 0.038,1.008399 0.6144,1.213715 0.4688,0.167086 1.248,0.632731 1.7315,1.034758 0.4835,0.40203 0.7287,0.473662 0.5448,0.159184 -0.1839,-0.314478 -0.1384,-0.57178 0.1011,-0.57178 0.2395,0 0.554,0.308762 0.6988,0.686134 0.1448,0.377376 0.5075,0.686134 0.806,0.686134 0.3706,0 0.3307,-0.253744 -0.1259,-0.800488 -0.8861,-1.060946 -1.8582,-3.37093 -1.5488,-3.680373 0.1352,-0.135214 0.2459,-0.0041 0.2459,0.291699 0,0.408328 0.2107,0.405949 0.8765,-0.0099 0.7295,-0.455579 1.1708,-0.354925 2.6302,0.599926 0.9645,0.631041 2.1138,1.280856 2.5541,1.44403 0.4403,0.163182 0.8005,0.61191 0.8005,0.997181 0,0.385271 0.1874,0.70049 0.4164,0.70049 1.0526,0 4.2576,2.517368 3.4113,2.679401 -1.6168,0.309532 -2.1785,1.088999 -1.2657,1.756401 0.8797,0.643251 2.501,0.812583 2.4202,0.252778 -0.3082,-2.137618 1.338,-2.697659 3.9376,-1.339555 0.5032,0.262869 1.6867,0.424496 2.6302,0.359169 0.9934,-0.06879 1.7153,0.08847 1.7153,0.373628 0,0.59948 1.806,0.638055 2.7227,0.05816 0.3654,-0.231129 0.88,-0.279439 1.1436,-0.10735 0.2636,0.172085 2.2289,0.320707 4.3673,0.330263 2.1385,0.0096 8.2107,0.06616 13.494,0.125768 9.3455,0.10545 10.932,0.03167 13.6591,-0.635295 1.1851,-0.289819 1.2794,-0.227652 0.9984,0.657817 -0.4348,1.369883 0.2657,1.217235 1.8097,-0.394378 z m -8.9197,-17.098485 c -2.9723,-0.658894 -3.3506,-1.524525 -1.7309,-3.961151 2.7214,-4.094023 11.5287,-4.946603 17.8837,-1.731202 5.6867,2.877275 -7.6501,7.577232 -16.1528,5.692353 z m -76.9619,-4.286017 c -0.7272,-1.655174 -1.2495,-1.991929 -2.6386,-1.701342 -2.2281,0.466105 -3.0245,-0.705153 -2.3278,-3.423473 0.7726,-3.014561 0.6251,-3.111384 -2.1439,-1.407594 -5.6058,3.449244 -8.0255,1.046697 -7.2551,-7.203454 1.5036,-16.102169 14.1424,-14.085018 19.2322,3.069456 1.9508,6.575179 -2.4381,16.194331 -4.8668,10.666407 z m 13.6278,-4.976871 c -0.3212,-1.71248 0.2015,-2.797985 1.0847,-2.252166 0.2735,0.169036 0.4973,1.118549 0.4973,2.110031 0,2.357707 -1.147,2.460759 -1.582,0.142135 z m 3.7243,-0.923879 c -0.4873,-0.487279 -0.3671,-1.989788 0.1591,-1.989788 0.6764,0 1.1022,1.353595 0.5877,1.868059 -0.2388,0.238866 -0.5749,0.293642 -0.7468,0.121729 z m -3.972,-4.475948 c 0,-1.066979 0.088,-1.125754 0.9161,-0.608898 1.0436,0.651818 0.9715,1.423787 -0.1535,1.641973 -0.5531,0.10727 -0.7626,-0.17651 -0.7626,-1.033075 z m 43.5782,32.376006 c -0.3096,-0.125297 -0.9272,-0.132925 -1.3722,-0.01697 -0.4451,0.115977 -0.1917,0.218495 0.563,0.227816 0.7548,0.0093 1.1189,-0.08557 0.8092,-0.210867 z m -20.7071,-2.497845 c 0,-0.222239 -0.4116,-0.404073 -0.9148,-0.404073 -0.5032,0 -0.9149,0.289491 -0.9149,0.643311 0,0.418105 0.3203,0.55956 0.9149,0.404074 0.5032,-0.131585 0.9148,-0.421073 0.9148,-0.643312 z m -3.2977,-0.97585 c -0.064,-0.77241 -0.4016,-1.052844 -1.3523,-1.123976 -1.5654,-0.117117 -1.9952,0.474293 -1.0393,1.430167 1.1113,1.111242 2.4947,0.934122 2.3916,-0.306191 z m -11.9577,-7.877675 c -0.1504,-0.391999 -0.7894,-0.90889 -1.42,-1.148645 -0.7605,-0.289122 -1.0565,-0.670594 -0.8792,-1.132833 0.1556,-0.405245 -0.038,-0.814318 -0.4635,-0.977421 -0.402,-0.15427 -0.6171,-0.464768 -0.4779,-0.689985 0.1392,-0.225221 0.035,-0.409494 -0.2313,-0.409494 -1.0612,0 -0.3847,1.749216 1.3913,3.597454 1.8298,1.904306 2.6319,2.197656 2.0806,0.760924 z m -4.4137,-5.501935 c 0,-0.377373 -0.1994,-0.686133 -0.4431,-0.686133 -0.2437,0 -0.3246,0.30876 -0.1798,0.686133 0.1448,0.377375 0.3442,0.686135 0.4431,0.686135 0.099,0 0.1798,-0.30876 0.1798,-0.686135 z m 73.9334,-30.532952 c -0.4059,-0.566061 -1.5866,-2.418622 -2.6238,-4.116803 -2.169,-3.551625 -2.4763,-3.705278 -2.8466,-1.423531 -0.2241,1.381471 -0.089,1.80627 0.7945,2.501415 0.5855,0.460538 1.9346,1.564266 2.998,2.452732 2.2364,1.868438 2.7181,2.036737 1.6779,0.586187 z m -1.4937,-23.482503 c 1.797,-2.644475 2.3018,-2.813968 10.1465,-3.406678 11.5558,-0.873105 11.441,-0.845193 11.2756,-2.741795 -0.2008,-2.301475 -1.435,-7.0550615 -1.8713,-7.2074955 -0.2052,-0.07167 -0.276,-0.637731 -0.1575,-1.257914 0.125,-0.6539659 10e-4,-1.1275959 -0.2952,-1.1275959 -0.2809,0 -0.5107,0.20584 -0.5107,0.457423 0,0.8719939 -0.6889,0.4443289 -1.2579,-0.7809 -0.7206,-1.5516631 -0.7361,-3.2048891 -0.032,-3.4395131 1.192,-0.397345 0.8499,-3.20184297 -0.3537,-2.89974997 -0.6122,0.153653 -1.1261,0.06939 -1.1579,-0.189883 -0.031,-0.256379 -0.098,-0.620518 -0.1486,-0.809206 -0.05,-0.18868403 -0.2537,-1.32080503 -0.4521,-2.51582403 -0.3645,-2.1946783 -0.966,-2.8446403 -1.27,-1.3722683 -0.1303,0.630803 -0.5678,0.362824 -2.0639,-1.264111 -2.3998,-2.6097097 -4.8183,-3.3964897 -9.5142,-3.0951277 -2.0117,0.129106 -3.4497,0.03498 -3.5385,-0.231546 -0.082,-0.246965 -0.486,-0.112703 -0.8971,0.298367 -0.4111,0.411066 -1.0791,0.747395 -1.4844,0.747395 -0.4054,0 -1.544,0.41168 -2.5303,0.914846 -0.9863,0.5031647 -2.1617,0.9161107 -2.612,0.9176617 -0.4502,0.0014 -1.347,0.278526 -1.9927,0.615497 -1.5132,0.789637 -3.3453,1.255703 -5.916,1.504972 -1.1321,0.109771 -2.127,0.39738 -2.2109,0.639128 -0.084,0.2417483 -0.7407,0.4395433 -1.4596,0.4395433 -0.719,0 -1.4447,0.222518 -1.6128,0.494487 -0.2892,0.467991 -1.4135,0.348414 -3.2116,-0.341557 -0.5094,-0.19547 -0.6942,-0.131349 -0.5048,0.175116 0.1693,0.274009 -0.041,0.456339 -0.4857,0.420801 -0.4315,-0.03448 -0.7895,0.246049 -0.7956,0.623421 -0.019,1.17252903 -3.8999,2.15825303 -4.62,1.17341303 -0.4784,-0.65424703 -0.7489,-0.69600703 -1.5905,-0.24556003 -0.8066,0.43167003 -0.8845,0.62486903 -0.3806,0.94399703 0.5104,0.323256 0.4854,0.402615 -0.1288,0.408259 -0.4193,0.0037 -0.8433,-0.235871 -0.9423,-0.532715 -0.1941,-0.58236 -0.6316,-0.433015 -3.0983,1.057686 -1.8622,1.12540597 -5.3787,1.36290397 -19.6692,1.32843597 -18.2235,-0.04396 -19.5908,0.708963 -21.9832,12.1049835 -0.5282,2.515824 -1.068,5.021607 -1.1995,5.568406 -0.3291,1.36815 1.8293,1.643684 10.6036,1.353591 3.7737,-0.124767 12.7277,-0.423345 19.8979,-0.66351 39.4159,-1.320245 41.3635,-1.263753 43.754,1.269078 2.8141,2.98159 4.572,3.168373 6.2721,0.666442 z m 16.1553,-28.1776538 c -0.146,-0.364898 -0.2544,-0.256514 -0.2763,0.276362 -0.02,0.482195 0.088,0.752363 0.2402,0.600364 0.152,-0.151998 0.1683,-0.546526 0.036,-0.876726 z m -2.174,-2.8359097 c 1.5411,-2.4935655 0.9044,-3.4016535 -1.6398,-2.3386355 -1.6334,0.682496 -1.5774,2.0583545 0.084,2.0583545 0.3621,0 0.4956,0.350803 0.3481,0.914845 -0.3569,1.3647077 0.1305,1.1086637 1.2078,-0.634564 z"
           id="path1861" />
        <path
           style="fill:#f8c40a;stroke-width:0.457423"
           d="m -1162.9405,102.74101 c -15.0213,-1.74455 -28.4162,-7.729482 -38.1106,-17.028181 -3.737,-3.584419 -3.737,-3.584419 -8.2336,-3.028582 -11.1628,1.379863 -19.4632,-2.882182 -24.3215,-12.488549 -6.1895,-12.238381 -0.5118,-30.626578 9.4945,-30.749433 2.927,-0.03595 3.049,-0.395744 1.2502,-3.68817 -1.2558,-2.298768 -2.9899,-3.19006 -5.2532,-2.700184 -2.515,0.544351 -2.5425,0.531781 -2.5678,-1.177607 -0.022,-1.523797 -0.1161,-1.609907 -2.3106,-2.126452 -5.5894,-1.315643 -5.851,-1.587786 -4.0874,-4.252675 1.2294,-1.857762 3.2673,-7.375481 3.4961,-9.466149 0.1199,-1.094374 -0.1025,-1.302424 -2.1251,-1.987839 -2.9435,-0.99746 -3.0417,-1.535814 -0.7135,-3.908099 2.262,-2.3047775 2.1666,-2.6431395 -1.0353,-3.6737504 -6.8336,-2.1995131 -15.4327,-9.0483351 -15.4327,-12.2915184 0,-1.4524247 0.1069,-1.4543927 4.7368,-0.08698 5.4472,1.608813 6.0035,1.690268 6.9279,1.014382 1.1478,-0.839341 0.6139,-1.945634 -1.4034,-2.9076087 -4.1047,-1.957366 -4.0993,-5.1957095 0.01,-4.1015975 3.3938,0.904347 6.3378,0.992506 8.5323,0.255512 5.2991,-1.779647 5.84,-7.712341 0.64,-7.020131 -2.1055,0.28028 -2.3968,0.57655 4.4244,-4.49912 4.0943,-3.04659 4.2094,-3.30806 1.8652,-4.2383 -0.9434,-0.37438 -2.1188,-0.84419 -2.612,-1.04403 -1.1309,-0.45821 3.0312,-2.8854 8.8278,-5.14816 2.9739,-1.16087 4.5361,-2.13728 7.0901,-4.43127 23.0773,-20.72855 68.6496,-27.0168 93.3549,-12.8815 11.4285,6.53888 17.5288,18.42295 14.2,27.663 -0.9342,2.59309 -0.8986,2.7236 1.3625,4.98463 3.3652,3.36524 3.717,5.325705 3.0196,16.8258645 -0.3155,5.203045 -0.4634,9.63849 -0.3287,9.856554 0.1348,0.218063 0.582,2.3386545 0.9939,4.7124265 0.9876,5.692225 0.6326,5.430621 6.9927,5.152398 8.6142,-0.376829 13.1765,6.343581 8.3928,12.362987 -1.1218,1.411597 -1.3533,2.205778 -1.6272,5.581451 -0.68,8.381165 -2.8297,13.811375 -7.1608,18.089025 -2.1733,2.146442 -2.7119,2.965425 -2.7119,4.123303 0,2.333129 -1.3526,10.870984 -2.3413,14.778594 -4.8735,19.261174 -34.1014,32.908949 -63.232,29.525759 z m 24.9583,-5.23024 c 20.012,-2.612462 32.0371,-13.956112 35.333,-33.330695 0.9635,-5.663934 1.0004,-5.586556 -2.8147,-5.9064 -3.7611,-0.31532 -6.3053,-1.240946 -9.9093,-3.605203 -3.2565,-2.136259 -3.3217,-2.140056 -4.1157,-0.239708 -1.5161,3.628573 -9.898,10.342346 -9.898,7.928166 0,-0.338382 0.4432,-1.007363 0.9848,-1.486623 4.0933,-3.621944 5.6113,-7.304864 3.5645,-8.647568 -0.767,-0.503165 -2.1044,-2.040525 -2.9719,-3.416356 -2.3689,-3.756875 -2.0138,-4.805059 0.8082,-2.385317 1.5442,1.324069 4.5889,3.285849 5.0997,3.285849 0.1579,0 -0.9256,-1.635555 -2.4077,-3.634565 -1.4822,-1.999014 -3.3548,-4.788033 -4.1614,-6.197819 -1.8593,-3.249625 -2.3063,-3.060477 -3.3201,1.404864 -6.8277,30.071811 -42.8596,30.971928 -53.5392,1.337471 -0.6347,-1.761076 -1.2932,-3.552219 -1.4635,-3.980321 -0.1703,-0.428102 -1.0191,-1.012532 -1.8863,-1.298733 -2.0089,-0.663015 -2.8739,-2.00153 -3.2285,-4.996146 -0.4113,-3.472377 -0.4341,-3.477345 -13.3189,-2.90199 -16.1586,0.721548 -18.7577,2.130844 -15.4051,8.353016 2.2102,4.101941 2.0272,5.008918 -0.6965,3.451907 -5.6612,-3.23621 -12.3504,5.388204 -12.3504,15.923298 0,16.972421 18.0327,29.137897 28.9419,19.525218 2.47,-2.176385 3.0338,-2.061809 3.9211,0.796784 1.2029,3.875472 5.801,8.49098 12.425,12.472141 8.0112,4.814868 15.629,6.891177 30.8729,8.414744 3.0891,0.308751 14.3666,-0.191166 19.5361,-0.866014 z m -2.8402,-24.034891 c 0,-1.603444 2.9349,-3.979503 5.5985,-4.532467 4.2501,-0.882308 13.5979,1.142614 13.0479,2.826419 -0.6744,2.06459 -18.6464,3.708937 -18.6464,1.706048 z m 14.7914,-50.899887 c 2.3619,-2.430107 2.3619,-2.430107 10.5005,-2.988543 10.4658,-0.718121 10.8445,-0.796066 10.8445,-2.231961 0,-1.366472 -1.9908,-12.5024625 -3.2414,-18.13145147 -1.0306,-4.63896733 -3.7929,-13.09884853 -4.2769,-13.09884853 -0.055,0 -1.4222,0.5458 -3.0379,1.212884 -2.4864,1.026532 -3.7109,1.2281 -7.9694,1.311894 -4.7558,0.09358 -5.2708,0.200876 -9.3925,1.9568165 -5.9086,2.5172397 -10.7632,3.7326947 -16.2232,4.0617927 -3.4267,0.206538 -5.3775,0.590565 -7.7762,1.530774 -11.2231,4.39910233 -15.0809,5.1152493 -28.3602,5.2646593 -6.2896,0.07077 -12.5677,0.352968 -13.9514,0.627112 -1.3837,0.27414 -4.5411,0.87679 -7.0164,1.339212 -5.7695,1.077834 -6.4527,2.8370771 -4.1339,10.6452675 0.3763,1.267247 0.7234,3.576051 0.7712,5.13067 0.083,2.68738 15.4992,4.753782 19.4983,2.613534 0.5057,-0.270675 9.7009,-0.64691 22.2871,-0.911918 11.7843,-0.248119 23.6338,-0.581818 26.3323,-0.741555 4.9062,-0.290422 4.9062,-0.290422 7.5474,2.265454 3.4937,3.380741 4.4349,3.398608 7.5981,0.144207 z"
           id="path1859" />
        <path
           style="fill:#ddad0d;stroke-width:0.457423"
           d="m -1162.9405,102.74101 c -15.0213,-1.74455 -28.4162,-7.729482 -38.1106,-17.028181 -3.737,-3.584419 -3.737,-3.584419 -8.2336,-3.028582 -11.1628,1.379863 -19.4632,-2.882182 -24.3215,-12.488549 -6.1895,-12.238381 -0.5118,-30.626578 9.4945,-30.749433 2.927,-0.03595 3.049,-0.395744 1.2502,-3.68817 -1.2558,-2.298768 -2.9899,-3.19006 -5.2532,-2.700184 -2.515,0.544351 -2.5425,0.531781 -2.5678,-1.177607 -0.022,-1.523797 -0.1161,-1.609907 -2.3106,-2.126452 -5.5894,-1.315643 -5.851,-1.587786 -4.0874,-4.252675 1.2294,-1.857762 3.2673,-7.375481 3.4961,-9.466149 0.1199,-1.094374 -0.1025,-1.302424 -2.1251,-1.987839 -2.9435,-0.99746 -3.0417,-1.535814 -0.7135,-3.908099 2.262,-2.3047775 2.1666,-2.6431395 -1.0353,-3.6737504 -6.8336,-2.1995131 -15.4327,-9.0483351 -15.4327,-12.2915184 0,-1.4524247 0.1069,-1.4543927 4.7368,-0.08698 5.4472,1.608813 6.0035,1.690268 6.9279,1.014382 1.1478,-0.839341 0.6139,-1.945634 -1.4034,-2.9076087 -4.1047,-1.957366 -4.0993,-5.1957095 0.01,-4.1015975 4.699,1.252108 8.7649,0.879775 10.9345,-1.001321 3.1365,-2.719328 2.0984,-6.330998 -1.6478,-5.733098 -2.3581,0.37637 -2.2186,0.16989 1.8297,-2.70813 7.0501,-5.01206 7.3449,-5.6409 3.1757,-6.7744 -2.7079,-0.73622 -0.558,-2.34953 7.2307,-5.42587 2.0126,-0.79496 3.8684,-1.61844 4.124,-1.82996 0.2556,-0.21153 5.3026,-1.21675 11.2155,-2.23385 5.913,-1.01709 13.7316,-2.46103 17.3748,-3.20876 29.7763,-6.11127 41.4073,-3.43944 61.0209,14.01749 4.1312,3.67691 8.0762,2.51216 10.9707,-3.239 3.0294,-6.01948 2.2109,-10.58632 -2.5717,-14.34845 -20.0822,-15.79723 -61.0384,-13.44819 -91.9635,5.27457 -5.0029,3.02887 -2.3252,-0.0975 3.3232,-3.88005 25.4666,-17.05404 64.8755,-20.6355 87.106,-7.91617 11.4285,6.53888 17.5288,18.42295 14.2,27.663 -0.9342,2.59309 -0.8986,2.7236 1.3625,4.98463 3.3652,3.36524 3.717,5.325705 3.0196,16.8258645 -0.3155,5.203045 -0.4634,9.63849 -0.3287,9.856554 0.1348,0.218063 0.582,2.3386545 0.9939,4.7124265 0.9876,5.692225 0.6326,5.430621 6.9927,5.152398 8.6142,-0.376829 13.1765,6.343581 8.3928,12.362987 -1.1218,1.411597 -1.3533,2.205778 -1.6272,5.581451 -0.68,8.381165 -2.8297,13.811375 -7.1608,18.089025 -2.1733,2.146442 -2.7119,2.965425 -2.7119,4.123303 0,2.333129 -1.3526,10.870984 -2.3413,14.778594 -4.8735,19.261174 -34.1014,32.908949 -63.232,29.525759 z m 24.9583,-5.23024 c 20.012,-2.612462 32.0371,-13.956112 35.333,-33.330695 0.9635,-5.663934 1.0004,-5.586556 -2.8147,-5.9064 -3.7611,-0.31532 -6.3053,-1.240946 -9.9093,-3.605203 -3.2565,-2.136259 -3.3217,-2.140056 -4.1157,-0.239708 -1.5161,3.628573 -9.898,10.342346 -9.898,7.928166 0,-0.338382 0.4432,-1.007363 0.9848,-1.486623 4.0933,-3.621944 5.6113,-7.304864 3.5645,-8.647568 -0.767,-0.503165 -2.1044,-2.040525 -2.9719,-3.416356 -2.3689,-3.756875 -2.0138,-4.805059 0.8082,-2.385317 1.5442,1.324069 4.5889,3.285849 5.0997,3.285849 0.1579,0 -0.9256,-1.635555 -2.4077,-3.634565 -1.4822,-1.999014 -3.3548,-4.788033 -4.1614,-6.197819 -1.8593,-3.249625 -2.3063,-3.060477 -3.3201,1.404864 -6.8277,30.071811 -42.8596,30.971928 -53.5392,1.337471 -0.6347,-1.761076 -1.2932,-3.552219 -1.4635,-3.980321 -0.1703,-0.428102 -1.0191,-1.012532 -1.8863,-1.298733 -2.0089,-0.663015 -2.8739,-2.00153 -3.2285,-4.996146 -0.4113,-3.472377 -0.4341,-3.477345 -13.3189,-2.90199 -16.1586,0.721548 -18.7577,2.130844 -15.4051,8.353016 2.2102,4.101941 2.0272,5.008918 -0.6965,3.451907 -5.6612,-3.23621 -12.3504,5.388204 -12.3504,15.923298 0,16.972421 18.0327,29.137897 28.9419,19.525218 2.47,-2.176385 3.0338,-2.061809 3.9211,0.796784 1.2029,3.875472 5.801,8.49098 12.425,12.472141 8.0112,4.814868 15.629,6.891177 30.8729,8.414744 3.0891,0.308751 14.3666,-0.191166 19.5361,-0.866014 z m -2.8402,-24.034891 c 0,-1.603444 2.9349,-3.979503 5.5985,-4.532467 4.2501,-0.882308 13.5979,1.142614 13.0479,2.826419 -0.6744,2.06459 -18.6464,3.708937 -18.6464,1.706048 z m 14.7914,-50.899887 c 2.3619,-2.430107 2.3619,-2.430107 10.5005,-2.988543 10.4658,-0.718121 10.8445,-0.796066 10.8445,-2.231961 0,-1.366472 -1.9908,-12.5024625 -3.2414,-18.13145147 -1.0306,-4.63896733 -3.7929,-13.09884853 -4.2769,-13.09884853 -0.055,0 -1.4222,0.5458 -3.0379,1.212884 -2.4864,1.026532 -3.7109,1.2281 -7.9694,1.311894 -4.7558,0.09358 -5.2708,0.200876 -9.3925,1.9568165 -5.9086,2.5172397 -10.7632,3.7326947 -16.2232,4.0617927 -3.4267,0.206538 -5.3775,0.590565 -7.7762,1.530774 -11.2231,4.39910233 -15.0809,5.1152493 -28.3602,5.2646593 -6.2896,0.07077 -12.5677,0.352968 -13.9514,0.627112 -1.3837,0.27414 -4.5411,0.87679 -7.0164,1.339212 -5.7695,1.077834 -6.4527,2.8370771 -4.1339,10.6452675 0.3763,1.267247 0.7234,3.576051 0.7712,5.13067 0.083,2.68738 15.4992,4.753782 19.4983,2.613534 0.5057,-0.270675 9.7009,-0.64691 22.2871,-0.911918 11.7843,-0.248119 23.6338,-0.581818 26.3323,-0.741555 4.9062,-0.290422 4.9062,-0.290422 7.5474,2.265454 3.4937,3.380741 4.4349,3.398608 7.5981,0.144207 z m -53.0445,-35.496092 c 0.9796,-0.09788 -0.9191,-1.403432 -4.3953,-3.022162 -2.079,-0.96812 -3.883,-1.88836 -4.0088,-2.04497 -0.2956,-0.36807 -8.0329,-4.12119 -8.4961,-4.12119 -0.1935,0 -1.6258,-0.50966 -3.1829,-1.13259 -6.8157,-2.72672 -17.5843,-3.22816 -20.0597,-0.93407 -0.6274,0.58151 -1.396,1.14237 -1.708,1.24634 -0.3346,0.11156 -0.441,0.51781 -0.2593,0.9911 0.1714,0.44663 0.5371,0.66032 0.8252,0.48222 5.0578,-3.12586 19.4582,-0.61177 27.6205,4.82211 2.8843,1.92015 6.33,3.556991 7.2026,3.42146 0.4392,-0.06823 0.9125,0.06024 1.0518,0.285497 0.2056,0.332689 2.1204,0.334903 5.41,0.0063 z m 35.8114,-6.483042 c 4.8092,-0.6689 4.7938,-0.6299 1.4728,-3.72223 -12.6888,-11.81498 -19.9283,-14.00077 -42.3348,-12.78191 -11.5064,0.62592 -14.1832,1.12354 -8.8246,1.64046 10.2215,0.98602 16.978,3.34896 25.1404,8.79234 10.3744,6.91861 13.2827,7.63795 24.5462,6.07134 z m -79.6072,-8.94274 c 3.1116,-1.31478 10.8074,-2.89295 14.3503,-2.94283 7.3143,-0.10299 8.5293,-0.53495 4.2461,-1.50959 -4.2232,-0.96097 -6.4395,-0.78014 -16.4695,1.34381 -7.0041,1.4832 -8.4604,2.32827 -5.7304,3.32535 1.7036,0.62223 1.6037,0.62824 3.6035,-0.21674 z"
           id="path1857" />
        <path
           style="fill:#947220;stroke-width:0.457423"
           d="m -1162.9405,102.74101 c -15.0213,-1.74455 -28.4162,-7.729482 -38.1106,-17.028181 -3.737,-3.584419 -3.737,-3.584419 -8.2336,-3.028582 -11.1628,1.379863 -19.4632,-2.882182 -24.3215,-12.488549 -6.1895,-12.238381 -0.5118,-30.626578 9.4945,-30.749433 2.292,-0.02813 2.5385,-0.125256 2.4013,-0.946201 -0.3052,-1.826594 -2.1849,-4.589828 -3.5783,-5.260245 -1.3847,-0.666268 -1.4047,-0.718409 -0.6857,-1.790868 0.7405,-1.104626 0.7405,-1.104626 -1.8537,-0.799726 -1.4268,0.167696 -2.7073,0.122049 -2.8454,-0.101433 -0.1381,-0.223483 -1.0253,-0.543812 -1.9715,-0.711832 -1.6338,-0.290121 -5.6085,-1.616801 -5.6085,-1.872007 0,-3.367169 6.3856,-9.019919 11.893,-10.528073 5.372,-1.471084 9.3478,-3.940288 10.7903,-6.701519 0.9743,-1.8649975 0.8037,-1.9394355 -1.07,-0.466891 -4.7908,3.764898 -13.4365,5.569284 -18.7142,3.905666 -3.8328,-1.208186 -2.6698,-2.02124 4.1216,-2.881392 4.3478,-0.550668 6.8235,-1.190588 9.1009,-2.3524615 2.6868,-1.370716 2.0513,-1.6429599 -2.2845,-0.978585 -4.4036,0.674759 -8.7433,0.448255 -10.8638,-0.5670119 -0.7548,-0.361365 -2.609,-1.133786 -4.1207,-1.716495 -4.9491,-1.9078691 -13.4901,-8.6092921 -13.4901,-10.5846624 0,-1.019596 0.1306,-0.968936 2.8496,1.105512 9.0433,6.8994643 19.4046,7.8692353 29.3811,2.7499553 0.9966,-0.511402 2.0454,-0.929825 2.3306,-0.929825 0.2851,0 0.8621,-0.379715 1.2821,-0.843813 0.42,-0.464094 1.6355,-1.1186953 2.7011,-1.4546603 1.0656,-0.33597 2.1804,-0.792904 2.4773,-1.015407 0.7588,-0.568663 8.2544,-1.8446947 10.347,-1.7614387 3.0287,0.1205007 3.0046,-0.218994 -0.2555,-3.5971765 -3.2251,-3.342007 -9.4567,-3.657147 -18.648,-0.943069 -11.5388,3.4072615 -18.5504,3.4692795 -23.5276,0.208104 -1.7123,-1.121958 -1.1497,-1.281021 1.6209,-0.458243 4.4081,1.309059 7.5335,0.837537 15.5145,-2.340609 17.0596,-6.79339 22.2109,-6.33227 33.7268,3.019033 7.8022,6.3357362 11.044,7.2605942 18.5743,5.2991872 1.4489,-0.377372 2.9845,-0.695419 3.4125,-0.706762 3.0192,-0.08005 3.5522,-1.1622087 1.2297,-2.4971067 -1.2547,-0.721186 -3.0112,-1.9550615 -3.9033,-2.7419345 -4.7096,-4.154017 -26.2604,-13.370167 -33.7712,-14.442127 -6.0748,-0.86703 -9.9015,-0.36562 -19.0401,2.49475 -2.2871,0.71587 -2.2871,0.71587 -0.6861,-0.69576 8.3593,-7.37064 26.5762,-7.09305 41.8411,0.63757 6.0394,3.05851 5.0734,1.32279 -1.8111,-3.25447 -4.4976,-2.99024 -4.5445,-3.03987 -3.0101,-3.18667 3.4018,-0.32546 8.4203,1.70859 19.0592,7.72483 14.1441,7.99849 22.4665,9.788207 31.8437,6.84796 5.2437,-1.64419 3.5156,-4.47752 -8.1025,-13.28501 -11.8642,-8.99393 -32.2802,-10.18796 -70.11,-4.10037 -7.048,1.13417 -7.3432,1.11633 -4.0635,-0.24564 5.2202,-2.16778 27.9747,-5.85098 41.1287,-6.65735 20.4263,-1.25218 28.9616,1.32521 42.7947,12.92258 4.5942,3.85169 4.6787,3.8889 9.4618,4.16713 2.2813,0.1327 4.1338,0.59564 6.4429,1.61009 12.2091,5.36376 15.8363,-12.17335 4.6508,-22.4858 -16.9763,-15.65124 -54.2646,-15.57614 -87.1402,0.17551 -3.5851,1.7177 -6.5183,3.04136 -6.5183,2.94147 0,-1.8618 17.9162,-10.47029 28.3602,-13.62669 41.5422,-12.55494 85.4086,5.31578 76.1477,31.02174 -0.9342,2.59309 -0.8985,2.7236 1.3625,4.98463 3.3652,3.36524 3.7171,5.325703 3.0196,16.8258625 -0.3155,5.203045 -0.4634,9.63849 -0.3286,9.856554 0.1347,0.218063 0.582,2.3386545 0.9938,4.7124265 0.9876,5.692225 0.6326,5.430621 6.9927,5.152398 8.6142,-0.376829 13.1765,6.343581 8.3929,12.362987 -1.1218,1.411597 -1.3534,2.205778 -1.6273,5.581451 -0.68,8.381165 -2.8296,13.811375 -7.1608,18.089025 -2.1732,2.146442 -2.7119,2.965425 -2.7119,4.123303 0,2.333129 -1.3526,10.870984 -2.3413,14.778594 -4.8735,19.261174 -34.1013,32.908951 -63.2319,29.525761 z m 24.9583,-5.23024 c 20.012,-2.612462 32.0371,-13.956112 35.333,-33.330695 0.9635,-5.663934 1.0004,-5.586556 -2.8147,-5.9064 -3.7611,-0.31532 -6.3053,-1.240946 -9.9093,-3.605203 -3.2565,-2.136259 -3.3217,-2.140056 -4.1157,-0.239708 -1.5161,3.628573 -9.898,10.342346 -9.898,7.928166 0,-0.338382 0.4432,-1.007363 0.9848,-1.486623 4.0933,-3.621944 5.6113,-7.304864 3.5645,-8.647568 -0.767,-0.503165 -2.1044,-2.040525 -2.9719,-3.416356 -2.3689,-3.756875 -2.0138,-4.805059 0.8082,-2.385317 1.5442,1.324069 4.5889,3.285849 5.0997,3.285849 0.1579,0 -0.9256,-1.635555 -2.4077,-3.634565 -1.4822,-1.999014 -3.3548,-4.788033 -4.1614,-6.197819 -1.8593,-3.249625 -2.3063,-3.060477 -3.3201,1.404864 -6.8277,30.071811 -42.8596,30.971928 -53.5392,1.337471 -0.6347,-1.761076 -1.2932,-3.552219 -1.4635,-3.980321 -0.1703,-0.428102 -1.0191,-1.012532 -1.8863,-1.298733 -2.0089,-0.663015 -2.8739,-2.00153 -3.2285,-4.996146 -0.4113,-3.472377 -0.4341,-3.477345 -13.3189,-2.90199 -16.1586,0.721548 -18.7577,2.130844 -15.4051,8.353016 2.2102,4.101941 2.0272,5.008918 -0.6965,3.451907 -5.6612,-3.23621 -12.3504,5.388204 -12.3504,15.923298 0,16.972421 18.0327,29.137897 28.9419,19.525218 2.47,-2.176385 3.0338,-2.061809 3.9211,0.796784 1.2029,3.875472 5.801,8.49098 12.425,12.472141 8.0112,4.814868 15.629,6.891177 30.8729,8.414744 3.0891,0.308751 14.3666,-0.191166 19.5361,-0.866014 z m -2.8402,-24.034891 c 0,-1.603444 2.9349,-3.979503 5.5985,-4.532467 4.2501,-0.882308 13.5979,1.142614 13.0479,2.826419 -0.6744,2.06459 -18.6464,3.708937 -18.6464,1.706048 z m 14.7914,-50.899887 c 2.3619,-2.430107 2.3619,-2.430107 10.5005,-2.988543 10.4658,-0.718121 10.8445,-0.796066 10.8445,-2.231961 0,-1.366472 -1.9908,-12.5024625 -3.2414,-18.13145147 -1.0306,-4.63896733 -3.7929,-13.09884853 -4.2769,-13.09884853 -0.055,0 -1.4222,0.5458 -3.0379,1.212884 -2.4864,1.026532 -3.7109,1.2281 -7.9694,1.311894 -4.7558,0.09358 -5.2708,0.200876 -9.3925,1.9568165 -5.9086,2.5172397 -10.7632,3.7326947 -16.2232,4.0617927 -3.4267,0.206538 -5.3775,0.590565 -7.7762,1.530774 -11.2231,4.39910233 -15.0809,5.1152493 -28.3602,5.2646593 -6.2896,0.07077 -12.5677,0.352968 -13.9514,0.627112 -1.3837,0.27414 -4.5411,0.87679 -7.0164,1.339212 -5.7695,1.077834 -6.4527,2.8370771 -4.1339,10.6452675 0.3763,1.267247 0.7234,3.576051 0.7712,5.13067 0.083,2.68738 15.4992,4.753782 19.4983,2.613534 0.5057,-0.270675 9.7009,-0.64691 22.2871,-0.911918 11.7843,-0.248119 23.6338,-0.581818 26.3323,-0.741555 4.9062,-0.290422 4.9062,-0.290422 7.5474,2.265454 3.4937,3.380741 4.4349,3.398608 7.5981,0.144207 z m -89.5881,-3.209263 c 1.1366,-1.088995 2.0664,-2.324035 2.0664,-2.744535 0,-1.03957 -0.5991,-0.960436 -1.6444,0.217175 -0.4792,0.539946 -1.952,1.678389 -3.2728,2.529881 -2.8374,1.829164 -2.898,1.977469 -0.8085,1.977469 1.2553,0 2.0308,-0.419584 3.6593,-1.97999 z m 111.2094,-19.39498647 c -0.465,-0.464971 -0.8486,0.235066 -0.4671,0.852353 0.2882,0.46630597 0.3959,0.46666897 0.5509,0.0018 0.1059,-0.317811 0.068,-0.702201 -0.084,-0.8542 z m 0.1025,-5.32951933 c 0.196,-1.7104437 -0.4521,-2.3509277 -1.702,-1.6819847 -1.0729,0.5741937 -1.2608,1.8336157 -0.4017,2.6926877 0.9039,0.9039303 1.9414,0.405503 2.1037,-1.010703 z m -0.223,-5.2673082 c -0.1048,-2.186295 -0.7181,-2.594908 -2.4017,-1.600355 -1.7455,1.031092 -1.7889,1.77536 -0.1556,2.6691915 1.8851,1.031634 2.6428,0.714939 2.5573,-1.0688365 z m -2.0265,-4.885957 c 0.2955,-0.2955 -0.8061,-2.48058 -1.2506,-2.48058 -0.7893,0 -2.0175,1.8055 -1.7329,2.54731 0.2616,0.68178 2.2801,0.63663 2.9835,-0.0667 z"
           id="path1855" />
        <path
           style="fill:#1c160c;stroke-width:0.457423"
           d="m -1162.55,102.45567 c -15.8076,-2.01796 -28.8833,-7.8542 -38.488,-17.178779 -3.7238,-3.615221 -3.7238,-3.615221 -6.3735,-3.125388 -13.6821,2.529274 -25.3295,-5.015859 -28.0531,-18.172648 -1.3855,-6.693098 0.9695,-17.246851 4.5687,-20.473926 0.9904,-0.888063 0.9904,-0.888063 0.011,0.712916 -11.7965,19.286877 9.8474,46.823587 26.164,33.287419 1.2097,-1.003507 2.2533,-1.750762 2.3193,-1.660558 0.066,0.0902 0.706,1.399045 1.4224,2.90854 12.7963,26.961204 78.2946,27.599324 93.901,0.914845 3.3748,-5.770285 7.186,-21.566128 5.2509,-21.762357 -0.1887,-0.01912 -1.616,-0.1199 -3.1719,-0.223922 -8.4357,-0.564007 -16.5846,-7.026815 -23.0014,-18.242088 -2.2992,-4.018681 -3.2589,-3.658786 -4.3723,1.639732 -6.3043,30.000513 -41.4848,30.263823 -52.6226,0.393854 -1.3368,-3.585246 -1.5947,-3.955557 -3.3109,-4.754253 -1.9767,-0.919886 -2.5752,-1.92772 -3.0693,-5.168353 -0.4726,-3.09982 -0.2759,-3.058789 -13.2236,-2.758848 -11.5941,0.26859 -11.5941,0.26859 -15.2953,2.129508 -4.3654,2.194855 -5.4804,2.350081 -3.2641,0.45439 2.2988,-1.966222 1.3995,-2.36879 -4.5742,-2.047616 -6.2698,0.337093 -7.9964,-0.542091 -3.0383,-1.547154 1.2093,-0.245137 1.46,-0.524654 1.5806,-1.761836 0.1731,-1.774849 -0.4937,-1.893715 -3.1165,-0.555626 -2.6408,1.347205 -3.1214,1.118485 -1.3942,-0.663487 0.8649,-0.89239 4.3101,-3.004415 7.9274,-4.859725 8.5957,-4.408762 11.3239,-7.086971 12.4298,-12.2019125 0.4308,-1.9927749 0.075,-1.8875529 -2.7943,0.826055 -3.7143,3.5127415 -10.5882,5.7358965 -16.6152,5.3736455 -3.2113,-0.193014 -2.9117,-0.980059 0.5414,-1.422465 7.078,-0.906817 11.2444,-2.135943 13.6285,-4.0204935 3.8554,-3.0474669 3.1983,-3.688382 -2.2879,-2.2314849 -10.0771,2.6760809 -19.7414,0.443234 -26.7592,-6.18246807 -2.7446,-2.59120703 -2.7446,-2.59120703 -0.2287,-1.15403703 10.3796,5.929406 17.4156,6.8313171 27.674,3.547423 8.6486,-2.76855497 11.7514,-3.22869797 22.07,-3.27303997 10.1194,-0.0435 10.5046,-0.169878 7.0899,-2.32620203 -1.1945,-0.7543483 -3.9216,-2.9563443 -6.06,-4.89332 -5.1581,-4.6721365 -7.871,-6.0373725 -12.4116,-6.2459125 -3.5462,-0.16287 -4.5239,0.0287 -14.8051,2.901388 -4.5827,1.280471 -11.0992,1.9661665 -12.2998,1.294246 -0.585,-0.327357 0.065,-0.565201 2.6375,-0.965149 3.2708,-0.508489 6.6657,-1.520422 15.5648,-4.639455 9.1324,-3.20076 14.9337,-2.19194 22.229,3.865512 13.6785,11.35738853 15.3825,11.80237353 32.1226,8.3882075 7.1437,-1.4569683 5.4459,0.122027 -2.4528,2.281193 -6.1578,1.68329003 -8.3165,1.90973703 -19.8352,2.08067003 -15.231,0.22602997 -24.9813,1.80109597 -25.5658,4.12988997 -0.3091,1.2312591 0.258,5.8765115 1.3062,10.7005165 0.3998,1.840376 0.6785,4.065933 0.6193,4.945689 -0.1687,2.50415 14.7078,3.84079 20.086,1.804711 5.9694,-2.259869 53.7437,-1.731418 56.1255,0.620827 3.3439,3.302376 5.1266,3.300555 8.0544,-0.0082 2.0754,-2.345548 2.0754,-2.345548 7.7762,-2.736914 15.514,-1.065067 14.4278,-0.561161 13.4514,-6.240126 -0.8648,-5.0293735 -0.7679,-7.5186924 0.2157,-5.5446025 0.3341,0.670526 0.9558,1.310251 1.3817,1.4216015 0.5664,0.148127 0.929,1.109922 1.3511,3.583796 0.9385,5.5003 0.2283,4.981381 6.8281,4.989052 8.2348,0.0096 9.074,0.631719 9.5624,7.089313 0.2472,3.269157 0.2092,3.438976 -1.1075,4.938539 -1.2236,1.393639 -1.3937,1.970526 -1.6575,5.622972 -0.5768,7.985929 -2.86,13.740131 -7.1135,17.928131 -2.6499,2.609083 -2.6499,2.609083 -2.953,6.552953 -0.3781,4.918774 -1.8666,12.447564 -3.1381,15.872104 -6.1627,16.597549 -35.8934,29.103527 -61.4366,25.842737 z m -7.7723,-45.400664 c -4.6362,-4.640982 -7.8167,-9.448127 -9.6557,-14.593823 -1.9289,-5.397486 -3.9539,-6.608914 -2.2736,-1.360201 2.4592,7.682164 8.1253,15.709934 13.3573,18.925193 3.0882,1.897741 2.7657,1.226844 -1.428,-2.971169 z m 63.3492,-1.613266 c 0,-0.116418 -1.2865,-1.084119 -2.8589,-2.150444 -5.8248,-3.950131 -10.1365,-8.849419 -13.3486,-15.16776 -1.0234,-2.01302 -2.0666,-3.575168 -2.3182,-3.471443 -2.4272,1.000726 5.0337,12.80724 11.1054,17.573766 2.8232,2.216294 7.4203,4.20863 7.4203,3.215881 z m -110.4002,-33.180176 c 1.677,0 4.7355,-3.713122 4.7355,-5.749041 0,-2.779034 -0.598,-2.85417 -3.31,-0.415866 -1.3062,1.174377 -3.7717,2.838659 -5.4789,3.698398 -4.1415,2.085609 -3.181,3.289298 2.0991,2.630573 0.7233,-0.09024 1.6027,-0.164064 1.9543,-0.164064 z m 77.4657,50.752968 c 0,-0.801793 3.3184,-3.161407 4.8501,-3.448751 5.5303,-1.037498 14.5301,1.73521 9.782,3.013724 -2.1637,0.582637 -14.6321,0.953337 -14.6321,0.435027 z m 15.0823,-15.330063 c 2.8174,-3.675957 2.8382,-4.224187 0.2409,-6.352528 -2.028,-1.661789 -3.2659,-3.314035 -2.8183,-3.761642 0.3234,-0.323384 7.1682,4.358949 7.4515,5.097398 0.3977,1.036222 -1.5153,4.153332 -3.7631,6.131959 -3.2222,2.836225 -3.7407,2.315734 -1.111,-1.115187 z m 21.6539,-58.28317247 c -0.4725,-1.25591703 -0.6634,-1.38127903 -1.4566,-0.95678703 -1.6255,0.86995103 -2.8848,0.61961603 -2.72,-0.540696 0.1155,-0.813329 0.3979,-0.999938 1.3462,-0.889685 2.5188,0.292819 3.7212,-6.33416 1.8005,-9.9231135 -0.2416,-0.451343 -0.7305,-1.625197 -1.0865,-2.608557 -0.356,-0.98337 -0.8091,-2.17211 -1.007,-2.64164 -0.7422,-1.76172 1.5444,0.12359 2.8488,2.34873 1.407,2.400387 1.9697,9.1135732 1.1913,14.2136295 -0.3729,2.44340503 -0.3729,2.44340503 -0.9167,0.99811903 z m -54.3469,-5.02325833 c -0.5032,-0.226425 -2.3558,-0.828904 -4.1168,-1.338848 -1.8006,-0.5213687 -5.7013,-2.3598067 -8.9124,-4.2004502 -23.0177,-13.194002 -34.7552,-17.110892 -47.5794,-15.877592 -3.4306,0.32993 -3.4306,0.32993 -0.9148,-0.62831 9.6552,-3.67753 20.9602,-1.08719 43.3149,9.92483 19.7118,9.7101535 25.4668,10.6227025 41.3065,6.549828 6.0735,-1.561698 6.4482,-1.794032 4.7139,-2.923088 -0.7048,-0.4588 -3.4427,-2.94545 -6.0844,-5.52588 -16.7865,-16.39769 -23.7445,-18.92496 -48.4868,-17.61114 -19.7971,1.05124 -18.5221,1.02718 -14.9998,0.28305 8.3246,-1.75868 30.9135,-2.70304 37.8264,-1.58138 6.6488,1.0788 14.0572,4.92379 21.2372,11.02223 14.2532,12.10618 17.3829,13.37331 24.0578,9.74039 13.3362,-7.2585 7.2522,-25.43805 -11.0652,-33.0636 -18.0008,-7.49375 -39.3741,-7.20815 -63.3872,0.84703 -6.4773,2.17281 -7.727,2.16376 -2.4983,-0.0181 24.9609,-10.41568 50.3094,-11.17646 69.4376,-2.084 15.8988,7.55734 22.6549,23.18918 14.5015,33.55225 -0.7385,0.93867 -1.4871,2.16981 -1.6634,2.73587 -0.1778,0.57064 -0.6898,1.0292 -1.1493,1.0292 -0.4559,0 -1.9656,0.52047 -3.3551,1.15658 -2.9269,1.339984 -7.5772,1.905987 -10.0456,1.22267 -1.5712,-0.434979 -2.0575,-0.305655 -5.9195,1.574003 -5.8653,2.8546845 -11.0162,4.2665622 -17.2981,4.7414212 -2.8932,0.218706 -5.8779,0.507234 -6.6326,0.641172 -0.7548,0.133941 -1.784,0.05827 -2.2871,-0.168145 z m 48.7155,-2.5207197 c 0,-0.408056 0.2683,-0.568809 0.6835,-0.409486 0.3759,0.144257 0.5696,0.446557 0.4304,0.671774 -0.3992,0.64585 -1.1139,0.477545 -1.1139,-0.262288 z m -1.5248,-3.7499705 c -0.8597,-0.859756 -0.2249,-1.75734 1.2981,-1.83529 1.8795,-0.0962 2.038,0.375074 0.4715,1.401499 -1.2767,0.836538 -1.3491,0.854271 -1.7696,0.433791 z"
           id="path1853" />
        <path
           id="path1884"
           style="opacity:1;fill:url(#linearGradient1955);fill-opacity:1;fill-rule:evenodd;stroke:#000000;stroke-width:0.902561;stroke-linecap:round;stroke-linejoin:round;paint-order:stroke fill markers"
           d="m -1178.6637,23.919761 a 24.383637,23.911903 0 0 0 -3.8342,12.871725 24.383637,23.911903 0 0 0 24.3838,23.911792 24.383637,23.911903 0 0 0 24.3835,-23.911792 24.383637,23.911903 0 0 0 -3.8341,-12.871725 z" />
        <path
           id="path1884-5"
           style="opacity:1;fill:url(#linearGradient1957);fill-opacity:1;fill-rule:evenodd;stroke:#000000;stroke-width:0.741572;stroke-linecap:round;stroke-linejoin:round;paint-order:stroke fill markers"
           d="m -1122.5916,22.319786 a 18.41792,21.371242 1.9963697 0 0 -2.5558,11.640666 18.41792,21.371242 1.9963697 0 0 19.0411,20.39384 18.41792,21.371242 1.9963697 0 0 17.7809,-22.29927 18.41792,21.371242 1.9963697 0 0 -3.2342,-11.341052 z" />
        <circle
           style="opacity:1;fill:url(#radialGradient1920);fill-opacity:1;fill-rule:evenodd;stroke:#000000;stroke-width:1.17813;stroke-linecap:round;stroke-linejoin:round;paint-order:stroke fill markers"
           id="path1908"
           cx="-1157.575"
           cy="38.476177"
           r="7.2260571" />
        <circle
           style="opacity:1;fill:#000000;fill-opacity:1;fill-rule:evenodd;stroke:#000000;stroke-width:1.17813;stroke-linecap:round;stroke-linejoin:round;paint-order:stroke fill markers"
           id="path1910"
           cx="-1157.2137"
           cy="38.476177"
           r="2.7097714" />
        <circle
           style="opacity:1;fill:url(#radialGradient1920-1);fill-opacity:1;fill-rule:evenodd;stroke:#000000;stroke-width:0.878987;stroke-linecap:round;stroke-linejoin:round;paint-order:stroke fill markers"
           id="path1908-2"
           cx="-1110.9406"
           cy="34.971859"
           r="5.3912544" />
        <circle
           style="opacity:1;fill:#000000;fill-opacity:1;fill-rule:evenodd;stroke:#000000;stroke-width:0.878987;stroke-linecap:round;stroke-linejoin:round;paint-order:stroke fill markers"
           id="path1910-2"
           cx="-1110.671"
           cy="34.971859"
           r="2.0217204" />
      </g>
    </g>
  </g>
</svg>
